<svg width="85" height="83" viewBox="0 0 85 83" fill="none" xmlns="http://www.w3.org/2000/svg">
<path d="M81.7033 77.4039H36.6049C39.0502 69.7576 40.4216 59.8661 40.4216 49.5244C40.4216 26.5884 26.2201 8.31001 25.6156 7.54329C25.0718 6.85356 24.2422 6.45117 23.3641 6.45117C22.4861 6.45117 21.6564 6.85356 21.1126 7.54329C20.5082 8.31001 6.3066 26.5887 6.3066 49.5244C6.3066 59.8661 7.67776 69.7576 10.1233 77.4039H2.86682C1.28359 77.4039 0 78.6874 0 80.2707C0 81.8539 1.28359 83.1375 2.86682 83.1375H81.7033C83.2865 83.1375 84.5701 81.8539 84.5701 80.2707C84.5701 78.6874 83.2863 77.4039 81.7033 77.4039ZM30.5499 77.4039H26.2309V19.1894C30.0786 26.2599 34.688 37.2836 34.688 49.5244C34.688 60.1437 33.1909 70.162 30.5499 77.4039ZM12.0405 49.5244C12.0405 37.283 16.6503 26.2593 20.4976 19.1894V77.4039H16.1786C13.5376 70.162 12.0405 60.1437 12.0405 49.5244Z" fill="#FFBA08"/>
<path d="M76.2585 22.0749C76.2585 14.7231 70.2776 8.74217 62.9258 8.74217C55.574 8.74217 49.5931 14.7231 49.5931 22.0749C49.5931 29.4267 55.574 35.4076 62.9258 35.4076C70.2776 35.4076 76.2585 29.4267 76.2585 22.0749ZM62.9258 29.6742C58.7356 29.6742 55.3265 26.2651 55.3265 22.0749C55.3265 17.8847 58.7356 14.4755 62.9258 14.4755C67.116 14.4755 70.5251 17.8847 70.5251 22.0749C70.5251 26.2651 67.116 29.6742 62.9258 29.6742Z" fill="#FFBA08"/>
<path d="M62.9257 8.11221C64.509 8.11221 65.7925 6.82862 65.7925 5.24539V2.86682C65.7925 1.28359 64.509 0 62.9257 0C61.3425 0 60.0589 1.28359 60.0589 2.86682V5.24539C60.0589 6.82862 61.3425 8.11221 62.9257 8.11221Z" fill="#FFBA08"/>
<path d="M60.0589 38.9037V41.2823C60.0589 42.8655 61.3425 44.1491 62.9257 44.1491C64.509 44.1491 65.7925 42.8655 65.7925 41.2823V38.9037C65.7925 37.3205 64.509 36.0369 62.9257 36.0369C61.3425 36.0372 60.0589 37.3208 60.0589 38.9037Z" fill="#FFBA08"/>
<path d="M76.8878 22.0749C76.8878 23.6581 78.1714 24.9417 79.7546 24.9417H82.1332C83.7164 24.9417 85 23.6581 85 22.0749C85 20.4916 83.7164 19.208 82.1332 19.208H79.7546C78.1716 19.208 76.8878 20.4919 76.8878 22.0749Z" fill="#FFBA08"/>
<path d="M43.7183 24.9417H46.0969C47.6801 24.9417 48.9637 23.6581 48.9637 22.0749C48.9637 20.4916 47.6801 19.208 46.0969 19.208H43.7183C42.1351 19.208 40.8515 20.4916 40.8515 22.0749C40.8515 23.6581 42.1351 24.9417 43.7183 24.9417Z" fill="#FFBA08"/>
<path d="M74.8255 13.042C75.5593 13.042 76.2928 12.7621 76.8526 12.2023L78.5345 10.5203C79.6541 9.4007 79.6541 7.58536 78.5345 6.46605C77.4147 5.34674 75.5999 5.34674 74.4803 6.46605L72.7983 8.14802C71.6787 9.26762 71.6787 11.083 72.7983 12.2023C73.3581 12.7621 74.0917 13.042 74.8255 13.042Z" fill="#FFBA08"/>
<path d="M48.9989 31.9474L47.317 33.6294C46.1974 34.749 46.1974 36.5644 47.317 37.6837C47.8768 38.2432 48.6103 38.5234 49.3441 38.5234C50.0779 38.5234 50.8114 38.2435 51.3712 37.6837L53.0532 36.0017C54.1728 34.8821 54.1728 33.0668 53.0532 31.9474C51.9336 30.8281 50.1188 30.8281 48.9989 31.9474Z" fill="#FFBA08"/>
<path d="M74.4803 37.6837C75.0401 38.2432 75.7736 38.5234 76.5074 38.5234C77.2412 38.5234 77.9747 38.2435 78.5345 37.6837C79.6541 36.5641 79.6541 34.7487 78.5345 33.6294L76.8526 31.9474C75.7327 30.8281 73.9179 30.8281 72.7983 31.9474C71.6787 33.067 71.6787 34.8824 72.7983 36.0017L74.4803 37.6837Z" fill="#FFBA08"/>
<path d="M48.9989 12.2026C49.5587 12.7621 50.2923 13.0422 51.0261 13.0422C51.7599 13.0422 52.4934 12.7624 53.0532 12.2026C54.1728 11.083 54.1728 9.26762 53.0532 8.14831L51.3712 6.46634C50.2513 5.34703 48.4366 5.34703 47.317 6.46634C46.1974 7.58594 46.1974 9.40127 47.317 10.5206L48.9989 12.2026Z" fill="#FFBA08"/>
</svg>
