<svg width="81" height="85" viewBox="0 0 81 85" fill="none" xmlns="http://www.w3.org/2000/svg">
<path d="M63.1918 0C54.425 0 47.1048 6.39275 45.6518 14.7608L24.8602 14.7605L12.3837 2.41004L7.63899 6.13574L16.3516 14.7608H3.95738C2.7359 14.7608 1.63719 15.5029 1.181 16.636C0.724801 17.769 1.00327 19.0655 1.88361 19.9118L30.5687 47.4752V79.0142H20.5364C18.8836 79.0142 17.5434 80.3545 17.5434 82.0073C17.5434 83.66 18.8836 85.0003 20.5364 85.0003H46.5868C48.2392 85.0003 49.5795 83.66 49.5795 82.0073C49.5795 80.3545 48.2392 79.0142 46.5868 79.0142H36.5542V47.4755L52.5625 32.0931C55.6145 34.3789 59.2961 35.6164 63.1918 35.6164C73.0114 35.6164 81 27.6279 81 17.8082C81 7.98857 73.0114 0 63.1918 0ZM72.8961 24.549L68.25 19.9032H74.8245C74.5185 21.6055 73.8485 23.1818 72.8961 24.549ZM65.287 12.75V6.17552C66.9893 6.48118 68.5657 7.15145 69.9328 8.10391L65.287 12.75ZM61.0969 12.75L56.4536 8.10677C57.8205 7.15345 59.3963 6.48232 61.0969 6.1761V12.75ZM65.287 22.8661L69.9328 27.512C68.5657 28.4644 66.9893 29.1347 65.287 29.4403V22.8661ZM68.25 15.713L72.8958 11.0672C73.8483 12.4343 74.5185 14.0107 74.8242 15.713H68.25ZM53.4906 11.07L57.1814 14.7608H51.7715C52.1298 13.4226 52.7182 12.1779 53.4906 11.07ZM55.7315 20.7466L33.562 42.0495L11.3916 20.7463L55.7315 20.7466ZM61.0969 23.8927V29.4432C59.625 29.1819 58.2283 28.6493 56.9659 27.8623L61.0969 23.8927Z" fill="#FFBA08"/>
</svg>
